<mxfile host="app.diagrams.net" agent="Mozilla/5.0 (Windows NT 10.0; Win64; x64) AppleWebKit/537.36 (KHTML, like Gecko) Chrome/126.0.0.0 Safari/537.36 OPR/112.0.0.0" version="24.7.4">
  <diagram name="Pagina-1" id="lvz35J5Zj7PPsOk2psY-">
    <mxGraphModel dx="1432" dy="738" grid="1" gridSize="10" guides="1" tooltips="1" connect="1" arrows="1" fold="1" page="1" pageScale="1" pageWidth="827" pageHeight="1169" math="0" shadow="0">
      <root>
        <mxCell id="0" />
        <mxCell id="1" parent="0" />
        <mxCell id="AWHT5TuiJ98jWAusrRUZ-3" style="edgeStyle=orthogonalEdgeStyle;rounded=0;orthogonalLoop=1;jettySize=auto;html=1;exitX=1;exitY=0.5;exitDx=0;exitDy=0;entryX=0;entryY=0.5;entryDx=0;entryDy=0;" edge="1" parent="1" source="AWHT5TuiJ98jWAusrRUZ-1" target="AWHT5TuiJ98jWAusrRUZ-2">
          <mxGeometry relative="1" as="geometry" />
        </mxCell>
        <mxCell id="AWHT5TuiJ98jWAusrRUZ-1" value="Inizia il gioco" style="rounded=0;whiteSpace=wrap;html=1;" vertex="1" parent="1">
          <mxGeometry x="40" y="260" width="120" height="60" as="geometry" />
        </mxCell>
        <mxCell id="AWHT5TuiJ98jWAusrRUZ-5" style="edgeStyle=orthogonalEdgeStyle;rounded=0;orthogonalLoop=1;jettySize=auto;html=1;exitX=0.5;exitY=0;exitDx=0;exitDy=0;entryX=0.5;entryY=1;entryDx=0;entryDy=0;" edge="1" parent="1" source="AWHT5TuiJ98jWAusrRUZ-2" target="AWHT5TuiJ98jWAusrRUZ-4">
          <mxGeometry relative="1" as="geometry" />
        </mxCell>
        <mxCell id="AWHT5TuiJ98jWAusrRUZ-27" style="edgeStyle=orthogonalEdgeStyle;rounded=0;orthogonalLoop=1;jettySize=auto;html=1;exitX=1;exitY=0.5;exitDx=0;exitDy=0;" edge="1" parent="1" source="AWHT5TuiJ98jWAusrRUZ-2" target="AWHT5TuiJ98jWAusrRUZ-21">
          <mxGeometry relative="1" as="geometry" />
        </mxCell>
        <mxCell id="AWHT5TuiJ98jWAusrRUZ-2" value="Linea di dialogo" style="rounded=0;whiteSpace=wrap;html=1;" vertex="1" parent="1">
          <mxGeometry x="370" y="260" width="120" height="60" as="geometry" />
        </mxCell>
        <mxCell id="AWHT5TuiJ98jWAusrRUZ-16" style="edgeStyle=orthogonalEdgeStyle;rounded=0;orthogonalLoop=1;jettySize=auto;html=1;exitX=1;exitY=0.5;exitDx=0;exitDy=0;entryX=0.75;entryY=0;entryDx=0;entryDy=0;" edge="1" parent="1" source="AWHT5TuiJ98jWAusrRUZ-4" target="AWHT5TuiJ98jWAusrRUZ-2">
          <mxGeometry relative="1" as="geometry">
            <Array as="points">
              <mxPoint x="500" y="190" />
              <mxPoint x="500" y="240" />
              <mxPoint x="460" y="240" />
            </Array>
          </mxGeometry>
        </mxCell>
        <mxCell id="AWHT5TuiJ98jWAusrRUZ-24" style="edgeStyle=orthogonalEdgeStyle;rounded=0;orthogonalLoop=1;jettySize=auto;html=1;exitX=0;exitY=0.5;exitDx=0;exitDy=0;entryX=1;entryY=0.5;entryDx=0;entryDy=0;" edge="1" parent="1" source="AWHT5TuiJ98jWAusrRUZ-4">
          <mxGeometry relative="1" as="geometry">
            <mxPoint x="310" y="190" as="targetPoint" />
          </mxGeometry>
        </mxCell>
        <mxCell id="AWHT5TuiJ98jWAusrRUZ-4" value="Risoluzione della quest" style="rounded=0;whiteSpace=wrap;html=1;" vertex="1" parent="1">
          <mxGeometry x="370" y="160" width="120" height="60" as="geometry" />
        </mxCell>
        <mxCell id="AWHT5TuiJ98jWAusrRUZ-6" value="Quest" style="text;html=1;align=center;verticalAlign=middle;whiteSpace=wrap;rounded=0;" vertex="1" parent="1">
          <mxGeometry x="380" y="230" width="60" height="30" as="geometry" />
        </mxCell>
        <mxCell id="AWHT5TuiJ98jWAusrRUZ-7" style="edgeStyle=orthogonalEdgeStyle;rounded=0;orthogonalLoop=1;jettySize=auto;html=1;exitX=0.75;exitY=1;exitDx=0;exitDy=0;entryX=0.308;entryY=1.017;entryDx=0;entryDy=0;entryPerimeter=0;" edge="1" parent="1" source="AWHT5TuiJ98jWAusrRUZ-2" target="AWHT5TuiJ98jWAusrRUZ-2">
          <mxGeometry relative="1" as="geometry" />
        </mxCell>
        <mxCell id="AWHT5TuiJ98jWAusrRUZ-8" value="Solo trama" style="text;html=1;align=center;verticalAlign=middle;whiteSpace=wrap;rounded=0;" vertex="1" parent="1">
          <mxGeometry x="400" y="340" width="60" height="30" as="geometry" />
        </mxCell>
        <mxCell id="AWHT5TuiJ98jWAusrRUZ-26" style="edgeStyle=orthogonalEdgeStyle;rounded=0;orthogonalLoop=1;jettySize=auto;html=1;exitX=1;exitY=0.75;exitDx=0;exitDy=0;entryX=0;entryY=0.25;entryDx=0;entryDy=0;" edge="1" parent="1" target="AWHT5TuiJ98jWAusrRUZ-2">
          <mxGeometry relative="1" as="geometry">
            <mxPoint x="310" y="205" as="sourcePoint" />
          </mxGeometry>
        </mxCell>
        <mxCell id="AWHT5TuiJ98jWAusrRUZ-9" value="Incremento errori" style="rounded=0;whiteSpace=wrap;html=1;" vertex="1" parent="1">
          <mxGeometry x="190" y="160" width="120" height="60" as="geometry" />
        </mxCell>
        <mxCell id="AWHT5TuiJ98jWAusrRUZ-13" value="risposta errata" style="text;html=1;align=center;verticalAlign=middle;whiteSpace=wrap;rounded=0;" vertex="1" parent="1">
          <mxGeometry x="310" y="160" width="60" height="30" as="geometry" />
        </mxCell>
        <mxCell id="AWHT5TuiJ98jWAusrRUZ-14" value="risposta corretta" style="text;html=1;align=center;verticalAlign=middle;whiteSpace=wrap;rounded=0;" vertex="1" parent="1">
          <mxGeometry x="500" y="200" width="60" height="30" as="geometry" />
        </mxCell>
        <mxCell id="AWHT5TuiJ98jWAusrRUZ-20" value="Fine" style="text;html=1;align=center;verticalAlign=middle;whiteSpace=wrap;rounded=0;" vertex="1" parent="1">
          <mxGeometry x="494" y="250" width="60" height="30" as="geometry" />
        </mxCell>
        <mxCell id="AWHT5TuiJ98jWAusrRUZ-21" value="Mostra classifica" style="rounded=0;whiteSpace=wrap;html=1;" vertex="1" parent="1">
          <mxGeometry x="560" y="260" width="120" height="60" as="geometry" />
        </mxCell>
      </root>
    </mxGraphModel>
  </diagram>
</mxfile>
